<svg xmlns="http://www.w3.org/2000/svg" xmlns:xlink="http://www.w3.org/1999/xlink" version="1.1" x="0px" y="0px" viewBox="0 0 100 125" enable-background="new 0 0 100 100" xml:space="preserve"><g><path fill="none" d="M60.23,30.253c-0.036-0.017-0.072-0.029-0.111-0.036c-0.152-0.027-0.311,0.029-0.466,0.151l-0.007,0.011   c0-0.002-0.002-0.002-0.002-0.003c-0.002,0.001-0.004,0.003-0.005,0.004c0-0.01,0-0.02-0.002-0.028   c-0.589-2.24-1.333-3.61-2.099-4.427c-0.149-0.081-0.304-0.153-0.475-0.202c-0.019,0.329,0.357,0.831,0.397,1.321   c-1.064-0.497-2.081-1.266-3.566-1.321c-0.347-0.013-0.723-0.01-1.107-0.002c-3.585,1.281-7.525-0.168-7.525-0.168   c-4.495-0.416-5.208,4.253-5.262,4.788c-0.001,0.013-0.002,0.026-0.002,0.039c-0.001,0-0.001,0-0.002,0   c-0.159-0.127-0.323-0.189-0.478-0.161c-0.068,0.011-0.133,0.04-0.191,0.083c-0.14,0.1-0.25,0.289-0.331,0.531   c-0.044,0.627-0.074,1.264-0.081,1.921c0.008,0.061,0.014,0.119,0.026,0.181c0.167,0.938,0.52,1.719,0.905,2.105   c0.19,0.19,0.389,0.284,0.579,0.252c0.092-0.015,0.174-0.061,0.25-0.13c0.921,2.865,2.686,5.717,4.912,7.422   c1.283,0.982,2.718,1.582,4.234,1.582c1.549,0,3.013-0.627,4.318-1.647c2.186-1.711,3.918-4.529,4.828-7.357   c0.075,0.069,0.157,0.115,0.248,0.13c0.163,0.029,0.334-0.037,0.499-0.177c0.417-0.353,0.809-1.177,0.987-2.179   C60.932,31.627,60.723,30.483,60.23,30.253z"/><path fill="none" d="M27.29,91.584h45.42c1.694,0,3.067-1.357,3.067-3.03l6.192-28.267c0-1.673-1.374-3.03-3.066-3.03h-3.672   h-1.355v-0.001h-0.335h-8.212H54.411h-3.015h-3.253h-2.908H26.125h-0.002h-1.364h-3.66c-1.693,0-3.067,1.356-3.067,3.03   l6.193,28.268C24.224,90.227,25.597,91.584,27.29,91.584z M50,73.046c0.909,0,1.646,0.736,1.646,1.646S50.909,76.338,50,76.338   c-0.909,0-1.646-0.737-1.646-1.646S49.091,73.046,50,73.046z"/><circle cx="50" cy="74.692" r="1.646"/><path d="M75.801,92.868h-51.6c-0.727,0-1.315,0.594-1.315,1.325c0,0.729,0.588,1.322,1.315,1.322h51.6   c0.726,0,1.313-0.595,1.313-1.322C77.114,93.462,76.524,92.868,75.801,92.868z"/><path d="M27.01,92.086h45.98c1.709,0,3.096-1.386,3.096-3.096l6.19-29.14c0-1.707-1.387-3.096-3.095-3.096h-4.022h-1.378   c0,0,0,0,0-0.001h-0.002c-0.002-0.006-0.002-0.011-0.004-0.017c-2.72-9.357-7.743-9.678-8.827-9.93   c-2.129-0.499-4.709-0.287-6.083-0.716c-0.161,1.349-4.088,5.788-6.659,8.572l-1.115-4.298c0.837-0.495,1.021-1.585,1.021-2.49   h-4.227c0,0.898,0.181,1.978,1.002,2.478l-1.097,4.309c-2.573-2.782-6.497-7.221-6.659-8.57c-1.376,0.429-3.955,0.217-6.084,0.716   c-1.082,0.252-6.107,0.574-8.828,9.93c-0.001,0.006-0.001,0.011-0.002,0.017h-1.386h-4.011c-1.71,0-3.096,1.388-3.096,3.096   l6.192,29.141C23.913,90.7,25.299,92.086,27.01,92.086z M21.098,57.256h3.66h1.364h0.002h19.111h2.908h3.253h3.015h10.918h8.212   h0.335v0.001h1.355h3.672c1.692,0,3.066,1.357,3.066,3.03l-6.192,28.267c0,1.673-1.373,3.03-3.067,3.03H27.29   c-1.693,0-3.066-1.357-3.066-3.03l-6.193-28.268C18.031,58.612,19.405,57.256,21.098,57.256z"/><path d="M36.214,15.886l-0.069,0.958c-0.373,0.063-0.657,0.387-0.657,0.777c0,0.352,0.23,0.65,0.548,0.75L35.4,27.269l0.877,2.63   l0.877-2.63l-0.636-8.897c0.318-0.103,0.548-0.399,0.548-0.75c0-0.391-0.284-0.714-0.656-0.777l-0.064-0.882l1.52,0.881   l0.062,0.035l1.206,0.698l-0.33,4.202l0.168,0.062c-0.492,1.162-0.797,2.522-0.92,3.994c-0.221,0.902-0.35,1.838-0.35,2.806h0.02   c0,0.009-0.002,0.016-0.002,0.023c-0.013,0.002-0.027,0.002-0.041,0.004c-0.839,0.146-1.221,1.935-0.852,3.996   c0.336,1.894,1.191,3.357,1.979,3.468c1.002,2.697,2.588,5.316,4.551,7.232c1.109,1.084,2.339,1.943,3.652,2.463   c0.901,0.357,1.842,0.556,2.811,0.556c0.966,0,1.908-0.199,2.809-0.556c1.357-0.538,2.627-1.44,3.769-2.578   c1.915-1.911,3.462-4.489,4.442-7.14c0.757-0.222,1.549-1.637,1.871-3.445c0.352-1.963,0.019-3.674-0.737-3.96   c0.025-0.479,0.045-0.963,0.045-1.458c-0.007-2.552-0.557-4.714-1.552-6.467l-0.279-2.811l1.291-0.747l0.655-0.378l2.737-1.585   c0.171-0.172,0.171-0.448,0-0.619l-14.562-6.06c-0.172-0.171-0.449-0.171-0.62,0l-14.562,6.06c-0.171,0.17-0.171,0.447,0,0.619   L36.214,15.886z M60.7,32.933c-0.179,1.002-0.57,1.826-0.987,2.179c-0.165,0.141-0.336,0.206-0.499,0.177   c-0.091-0.015-0.173-0.061-0.248-0.13c-0.91,2.828-2.643,5.646-4.828,7.357c-1.305,1.02-2.769,1.647-4.318,1.647   c-1.517,0-2.951-0.6-4.234-1.582c-2.226-1.705-3.991-4.557-4.912-7.422c-0.076,0.07-0.157,0.115-0.25,0.13   c-0.189,0.032-0.388-0.062-0.579-0.252c-0.385-0.386-0.738-1.167-0.905-2.105c-0.012-0.062-0.018-0.12-0.026-0.181   c0.007-0.657,0.037-1.294,0.081-1.921c0.082-0.242,0.191-0.431,0.331-0.531c0.059-0.042,0.124-0.072,0.191-0.083   c0.155-0.028,0.319,0.033,0.478,0.161c0.001,0,0.001,0,0.002,0c0-0.013,0.001-0.026,0.002-0.039   c0.054-0.535,0.767-5.203,5.262-4.788c0,0,3.94,1.449,7.525,0.168c0.385-0.008,0.761-0.011,1.107,0.002   c1.485,0.055,2.502,0.824,3.566,1.321c-0.04-0.49-0.416-0.992-0.397-1.321c0.171,0.049,0.325,0.121,0.475,0.202   c0.766,0.816,1.51,2.187,2.099,4.427c0.002,0.009,0.002,0.018,0.002,0.028c0.001-0.001,0.003-0.003,0.005-0.004   c0,0.001,0.002,0.001,0.002,0.003l0.007-0.011c0.155-0.122,0.313-0.178,0.466-0.151c0.039,0.006,0.075,0.019,0.111,0.036   C60.723,30.483,60.932,31.627,60.7,32.933z"/></g><text x="0" y="115" fill="#000000" font-size="5px" font-weight="bold" font-family="'Helvetica Neue', Helvetica, Arial-Unicode, Arial, Sans-serif">Created by Wilson Joseph</text><text x="0" y="120" fill="#000000" font-size="5px" font-weight="bold" font-family="'Helvetica Neue', Helvetica, Arial-Unicode, Arial, Sans-serif">from the Noun Project</text></svg>