<svg xmlns="http://www.w3.org/2000/svg" xmlns:xlink="http://www.w3.org/1999/xlink" version="1.1" x="0px" y="0px" viewBox="0 0 64 80" enable-background="new 0 0 64 64" xml:space="preserve"><g><g><path fill="#000000" d="M18.296,25.438c0,0-0.411,0.654-1.981,0.747c-0.663-0.037-1.121-0.178-1.43-0.327    c-0.411-0.206-0.551-0.42-0.551-0.42c0-3.308,0.99-7.279,1.346-8.624c-0.318-0.206-0.523-0.561-0.523-0.972    c0-0.542,0.374-0.99,0.869-1.121v-2.196l0.579,0.346v1.85c0.495,0.131,0.869,0.579,0.869,1.121c0,0.411-0.215,0.766-0.533,0.972    c0.234,0.86,0.729,2.803,1.047,4.962C18.175,22.98,18.296,24.251,18.296,25.438z"/><path fill="rgb(236,206,148)" d="M44.085,26.09c-0.054-0.69-0.475-1.418-1.364-1.41c-0.046,0-0.092-0.023-0.169-0.046l-0.069-0.192    c0,0,0.061-0.598,0.077-0.919c0.054-1.042,0.13-2.076,0.192-3.111c0.031-0.437,0.084-0.873,0.115-1.31l-2.628-0.69    c-0.1-0.046-0.306-0.077-0.506-0.107l-0.713-0.107c-1.05-0.161-2.046-0.314-3.034-0.368c-1.716-0.1-3.463-0.061-5.256-0.077    h-0.215c-2.023,0-3.685,0.115-5.241,0.352c-0.23,0.038-0.467,0.084-0.697,0.138l-0.107,0.023    c-0.996,0.176-1.893,0.414-2.659,0.705l-0.713,0.268c0.023,0.988,0.115,1.992,0.169,2.988c0.038,0.805,0.115,1.617,0.184,2.421    c-0.077,0.023-0.123,0.046-0.169,0.046c-0.896-0.008-1.31,0.72-1.371,1.41c-0.031,0.452-0.046,0.919,0.008,1.372    c0.146,1.31,0.559,2.521,1.364,3.578c0.444,0.575,0.797,0.667,1.44,0.429c0.223,0.052,0.685,1.124,0.783,1.335    c0.905,1.943,2.348,4.345,5.065,5.351c1.865,0.69,3.941,0.915,5.873,0.372c2.059-0.579,3.685-2.046,4.934-3.737    c0.408-0.553,0.777-1.135,1.098-1.743c0,0,0.437-0.782,0.628-1.195c0.084-0.176,0.084-0.337,0.268-0.368    c0.146-0.023,0.352,0.1,0.513,0.092c0.36-0.031,0.621-0.284,0.827-0.559c0.812-1.05,1.226-2.268,1.372-3.571    C44.131,27.01,44.123,26.542,44.085,26.09z M40.994,23.306c-0.1,1.982-0.204,4.03-0.721,5.978    c-0.027,0.111-0.055,0.215-0.095,0.335c-1.247,3.767-4.029,7.802-8.45,7.669c-0.709-0.021-1.415-0.147-2.088-0.373    c-3.152-1.062-4.656-3.597-5.813-7.158c-0.506-1.553-0.752-3.281-0.752-5.295c-0.004-0.188-0.012-0.392-0.023-0.56    c0.333,0.005,0.667,0.009,1,0.009c2.252,0,4.213-0.149,5.996-0.456c0.622-0.108,1.356-0.244,2.1-0.427    c2.236-0.554,3.985-1.371,5.463-2.553c0.78,0.918,1.807,1.602,3.282,2.192c0.042,0.019,0.087,0.036,0.131,0.055L40.994,23.306z"/><path fill="#000000" d="M42.593,14.255c0-0.015-0.008-0.023-0.008-0.031c-0.038-0.713,0.023-1.417-0.169-2.115    c-0.092-0.368-0.192-0.613-0.506-0.812c-0.368-0.245-0.728-0.49-1.126-0.682c-0.981-0.498-2.007-0.828-3.095-1.057    c-2.352-0.483-4.72-0.598-7.095-0.506c-0.996,0.038-1.985,0.107-2.973,0.253c-1.663,0.245-3.287,0.651-4.773,1.486    c-0.552,0.314-0.95,0.513-1.111,1.157c-0.368,1.517-0.345,3.9-0.391,5.448c0,0.046,0,0.092,0.008,0.138    c0.919-0.345,1.938-0.598,2.927-0.774c0.276-0.069,0.552-0.123,0.835-0.169c1.893-0.291,3.785-0.375,5.701-0.368    c1.778,0.015,3.555-0.023,5.325,0.077c1.303,0.069,2.605,0.299,3.892,0.49c0.299,0.046,0.598,0.092,0.873,0.207l1.747,0.46    c0-0.008,0-0.008,0-0.015C42.639,16.691,42.631,15.006,42.593,14.255z"/><path fill="#000000" d="M50.174,10.401c-2.069,1.188-4.076,2.345-6.153,3.548l-0.345,0.199v-0.084l-0.008-0.031    c-0.008-0.138-0.008-0.276-0.008-0.414c-0.008-0.544-0.015-1.165-0.184-1.801c-0.138-0.521-0.352-1.065-0.996-1.486l-0.176-0.115    c-0.329-0.215-0.674-0.444-1.065-0.636c-1.019-0.506-2.13-0.881-3.379-1.149c-1.831-0.375-3.747-0.559-5.854-0.559    c-0.506,0-1.011,0.008-1.517,0.031c-1.203,0.054-2.184,0.13-3.088,0.261c-2.115,0.314-3.754,0.828-5.218,1.655    c-0.598,0.329-1.348,0.751-1.617,1.862c-0.176,0.705-0.268,1.548-0.314,2.406l-0.521-0.306l-1.096-0.621l-0.123-0.077l-0.46-0.268    l-0.123-0.077l-1.425-0.812c-0.85-0.498-1.724-0.996-2.682-1.548c0.429-0.268,0.743-0.475,1.065-0.659    c5.44-3.065,10.888-6.122,16.313-9.21c0.59-0.329,1.027-0.329,1.617,0.008c5.517,3.141,11.056,6.245,16.581,9.363    C49.638,10.01,49.86,10.178,50.174,10.401z"/></g><path fill="#000000" d="M55.78,50.137c-1.186-2.635-3.848-4.382-6.221-5.849c-2.807-1.729-6.04-3.205-9.172-4.102   c-0.127-0.036-0.244-0.045-0.362-0.072c-0.027,0.045-0.045,0.1-0.072,0.145c-0.091,0.181-0.172,0.362-0.254,0.534   c-0.652,1.349-1.304,2.698-1.956,4.057c-0.444,0.924-1.222,0.987-1.802,0.154c-0.48-0.706-0.96-1.403-1.44-2.11   c-0.136-0.199-0.272-0.398-0.407-0.598c-0.38-0.543-0.77-0.58-1.231-0.109c-0.072,0.072-0.145,0.154-0.217,0.226   c-0.251,0.26-0.448,0.384-0.645,0.387c-0.197-0.003-0.394-0.128-0.645-0.387c-0.072-0.072-0.145-0.154-0.217-0.226   c-0.462-0.471-0.851-0.435-1.231,0.109c-0.136,0.199-0.272,0.398-0.407,0.598c-0.48,0.706-0.96,1.403-1.44,2.11   c-0.579,0.833-1.358,0.77-1.802-0.154c-0.652-1.358-1.304-2.707-1.956-4.057c-0.082-0.172-0.163-0.353-0.254-0.534   c-0.027-0.045-0.045-0.1-0.072-0.145c-0.118,0.027-0.235,0.036-0.362,0.072c-3.133,0.896-6.366,2.372-9.172,4.102   c-2.372,1.467-5.034,3.214-6.221,5.849c-0.661,1.467-0.598,3.205-0.543,4.881l0.018,0.516c0.009,0.263,0.018,0.625,0.018,0.96   c-0.009,0.942,0.697,1.367,1.385,1.775c0.1,0.054,0.199,0.109,0.281,0.172c0.869,0.543,1.793,1.096,2.762,1.53   c0.38,0.172,0.779,0.335,1.177,0.498c2.807,1.114,6.03,1.929,10.005,2.562c1.539,0.235,2.97,0.417,4.41,0.525   c1.422,0.127,2.78,0.181,4.147,0.181h0.113h0.014h0.113c1.367,0,2.725-0.054,4.147-0.181c1.44-0.109,2.87-0.29,4.41-0.525   c3.975-0.634,7.199-1.449,10.005-2.562c0.398-0.163,0.797-0.326,1.177-0.498c0.969-0.435,1.892-0.987,2.762-1.53   c0.081-0.063,0.181-0.118,0.281-0.172c0.688-0.407,1.394-0.833,1.385-1.775c0-0.335,0.009-0.697,0.018-0.96l0.018-0.516   C56.378,53.342,56.441,51.604,55.78,50.137z"/></g><text x="0" y="79" fill="green" font-size="5px" font-weight="bold" font-family="'Helvetica Neue', Helvetica, Arial-Unicode, Arial, Sans-serif">Created by Delwar Hossain</text><text x="0" y="84" fill="red" font-size="5px" font-weight="bold" font-family="'Helvetica Neue', Helvetica, Arial-Unicode, Arial, Sans-serif">from the Noun Project</text></svg>